<svg width="26" height="26" viewBox="0 0 26 26" fill="none" xmlns="http://www.w3.org/2000/svg">
<g clip-path="url(#clip0_9_118)">
<g clip-path="url(#clip1_9_118)">
<path d="M10.6683 25.5133C10.1557 25.1723 9.70141 24.7509 9.32285 24.2653C8.90643 23.7641 8.52061 23.2383 8.16747 22.6907C7.33879 21.4767 6.68891 20.1498 6.23779 18.7509C5.69585 17.1259 5.43341 15.5683 5.43341 14.0449C5.43341 12.3435 5.80147 10.8583 6.52135 9.61025C7.05498 8.6348 7.83956 7.81965 8.79391 7.24913C9.71879 6.67467 10.7815 6.36029 11.87 6.33913C12.2511 6.33913 12.6614 6.39438 13.0969 6.5C13.4097 6.58857 13.7908 6.72832 14.2563 6.90219C14.8487 7.1305 15.1745 7.27025 15.285 7.30438C15.6319 7.43113 15.9236 7.48638 16.1527 7.48638C16.3266 7.48638 16.572 7.43113 16.8507 7.34663C17.0075 7.29138 17.3032 7.19388 17.7265 7.01269C18.1458 6.85994 18.4757 6.72913 18.7381 6.63163C19.1403 6.513 19.5295 6.40332 19.8764 6.34807C20.2877 6.28322 20.7051 6.26605 21.1203 6.29688C21.8399 6.34391 22.5487 6.49639 23.2239 6.74944C24.3281 7.19388 25.221 7.88775 25.8857 8.87413C25.6047 9.04727 25.3411 9.24698 25.0983 9.4705C24.5699 9.93897 24.1198 10.4889 23.765 11.0996C23.3013 11.9341 23.0609 12.8741 23.0671 13.8288C23.0842 15.0012 23.3848 16.0339 23.9771 16.9268C24.4126 17.5886 24.9785 18.1545 25.6403 18.59C25.9791 18.8183 26.2708 18.9751 26.5503 19.0808C26.4195 19.487 26.2797 19.8803 26.1148 20.2703C25.7407 21.1448 25.2873 21.9833 24.7603 22.7752C24.2907 23.4569 23.9227 23.9647 23.6432 24.3027C23.2077 24.8186 22.7884 25.2127 22.3651 25.4873C21.8995 25.7961 21.3495 25.961 20.7905 25.961C20.4119 25.9755 20.0334 25.9297 19.6692 25.8253C19.3564 25.7197 19.0468 25.6051 18.7422 25.4743C18.4254 25.3288 18.0988 25.2058 17.7647 25.1063C16.939 24.8942 16.0732 24.8928 15.2468 25.1022C14.908 25.1997 14.5822 25.3134 14.2604 25.4532C13.8078 25.6433 13.5072 25.7709 13.3333 25.8253C12.9864 25.9269 12.6265 25.9903 12.2625 26.0114C11.6994 26.0114 11.1745 25.8505 10.6545 25.5247L10.6683 25.5133ZM18.0946 5.51363C17.3585 5.88169 16.6557 6.0385 15.9577 5.98732C15.848 5.2845 15.9577 4.56544 16.2494 3.77813C16.4977 3.11112 16.8647 2.49453 17.3325 1.95813C17.8265 1.39346 18.4259 0.930622 19.0972 0.595566C19.8122 0.227504 20.4939 0.0284413 21.1455 -0.000808716C21.23 0.735316 21.1455 1.45925 20.875 2.24169C20.6246 2.93336 20.2583 3.57738 19.7919 4.14619C19.3158 4.71163 18.7316 5.17627 18.0735 5.51282L18.0946 5.51363Z" fill="#100303"/>
</g>
</g>
<defs>
<clipPath id="clip0_9_118">
<rect width="26" height="26" fill="white"/>
</clipPath>
<clipPath id="clip1_9_118">
<rect width="26" height="26" fill="white" transform="translate(3)"/>
</clipPath>
</defs>
</svg>
